<svg id="visual" viewBox="0 0 900 600" width="900" height="600" xmlns="http://www.w3.org/2000/svg" xmlns:xlink="http://www.w3.org/1999/xlink" version="1.1"><rect x="0" y="0" width="900" height="600" fill="#010e14"></rect><path d="M0 452L21.5 448.3C43 444.7 86 437.3 128.8 446.2C171.7 455 214.3 480 257.2 489.7C300 499.3 343 493.7 385.8 495.2C428.7 496.7 471.3 505.3 514.2 487.2C557 469 600 424 642.8 421C685.7 418 728.3 457 771.2 471C814 485 857 474 878.5 468.5L900 463L900 601L878.5 601C857 601 814 601 771.2 601C728.3 601 685.7 601 642.8 601C600 601 557 601 514.2 601C471.3 601 428.7 601 385.8 601C343 601 300 601 257.2 601C214.3 601 171.7 601 128.8 601C86 601 43 601 21.5 601L0 601Z" fill="#041d44" stroke-linecap="round" stroke-linejoin="miter"></path></svg>